<?xml version="1.0" encoding="utf-8"?>
<!-- Generator: Adobe Illustrator 15.0.0, SVG Export Plug-In . SVG Version: 6.00 Build 0)  -->
<!DOCTYPE svg PUBLIC "-//W3C//DTD SVG 1.1//EN" "http://www.w3.org/Graphics/SVG/1.1/DTD/svg11.dtd">
<svg version="1.1" id="Layer_1" xmlns="http://www.w3.org/2000/svg" xmlns:xlink="http://www.w3.org/1999/xlink" x="0px" y="0px"
	 width="512px" height="512px" viewBox="0 0 512 512" enable-background="new 0 0 512 512" xml:space="preserve">
<path fill-rule="evenodd" clip-rule="evenodd" d="M239.895,29.965c74.501-5.826,129.877,22.537,168.733,56.57
	c37.6,32.932,70.451,81.787,75.102,149.227c5.071,73.554-21.418,128.275-56.569,168.734
	c-33.524,38.584-84.343,70.676-149.228,75.101c-71.554,4.88-127.366-20.821-168.733-56.569
	c-39.49-34.126-71.023-83.63-76.077-148.252C27.08,197.503,56.091,142.77,88.717,105.066
	C120.439,68.408,174.678,35.065,239.895,29.965z M100.421,112.869c-30.907,35.052-59.945,85.964-54.619,158.005
	c4.525,61.196,33.355,108.254,70.224,141.425c37.358,33.61,92.297,59.1,158.005,54.618c61.014-4.16,109.421-32.935,142.399-69.249
	c32.71-36.018,59.373-89.063,54.619-158.004c-4.244-61.549-33.878-111.043-69.249-142.399
	c-35.687-31.636-90.083-59.931-158.005-54.619C178.55,47.747,132.428,76.571,100.421,112.869z"/>
<path fill-rule="evenodd" clip-rule="evenodd" d="M268.18,82.634c30.424,107.096,62.7,212.349,92.657,319.911
	c-5.853,0-11.704,0-17.557,0c-8.612-27.475-16.562-55.613-24.383-83.879c-7.478,0-14.956,0-22.434,0
	c5.391,20.943,12.047,40.621,17.557,61.446c-4.552,0-9.104,0-13.655,0c-5.697-20.637-12.025-40.643-17.556-61.446
	c-27.96,0-55.919,0-83.879,0c-9.686,26.727-16.217,56.607-25.359,83.879c-5.852,0-11.704,0-17.556,0
	c30.399-107.449,61.904-213.79,93.632-319.911C255.825,82.634,262.002,82.634,268.18,82.634z M246.722,150.908
	c15.863,49.159,29.034,101.011,44.866,150.202c7.152,0,14.305,0,21.457,0c-17.543-63.41-35.593-126.313-54.619-188.24
	C253.974,124.998,251.234,138.839,246.722,150.908z M203.807,301.109c24.383,0,48.767,0,73.15,0
	c-11.644-42.975-23.449-85.788-37.063-126.793C228.521,217.235,214.867,257.876,203.807,301.109z"/>
</svg>
